<?xml version="1.0" encoding="UTF-8"?><svg id="a" xmlns="http://www.w3.org/2000/svg" viewBox="0 0 226.72 233.53"><defs><style>.b{fill:#ffdc1d;}.c{fill:#ffbe02;}.d{fill:#fda005;}.e{fill:#fff4a5;}</style></defs><path class="d" d="M0,120.17C0,57.56,50.75,6.81,113.36,6.81s113.36,50.75,113.36,113.36-50.75,113.36-113.36,113.36c-42.62,0-79.75-23.52-99.11-58.3C5.17,158.93,0,140.15,0,120.17Z"/><path class="b" d="M0,113.36C0,50.75,50.75,0,113.36,0s113.36,50.75,113.36,113.36-50.75,113.36-113.36,113.36c-42.62,0-79.75-23.52-99.11-58.3C5.17,152.12,0,133.35,0,113.36Z"/><path class="e" d="M42.89,198.3s-6.45-4.69-14.76-14.39c-5.52-6.43-10.58-15.09-10.58-15.09C66.75,117.55,115.14,67.09,164.35,15.83c0,0,9.15,5.07,15.65,10.38,7.97,6.27,15.06,13.73,15.06,13.73-50.72,52.78-101.44,105.57-152.17,158.35Z"/><path class="e" d="M196.7,41.6s2.3,2.19,3.93,4.08c1.93,2.23,3.88,5.83,3.88,5.83-48.59,51.31-99.17,104.58-147.76,155.89,0,0-3.23-1.88-5.02-3.06-2.72-1.69-5.41-3.98-5.41-3.98,50.07-52.86,100.32-105.91,150.39-158.76Z"/><path class="d" d="M20.79,113.36c0-51.12,41.44-92.57,92.57-92.57s92.57,41.44,92.57,92.57-41.44,92.57-92.57,92.57c-34.81,0-65.13-19.21-80.93-47.61-7.41-13.31-11.63-28.65-11.63-44.96Z"/><path class="c" d="M20.79,116.4c0-49.45,41.44-89.53,92.57-89.53s92.57,40.08,92.57,89.53-41.44,89.53-92.57,89.53c-34.81,0-65.13-18.58-80.93-46.04-7.41-12.88-11.63-27.7-11.63-43.49Z"/></svg>