<?xml version="1.0" encoding="UTF-8"?><svg id="a" xmlns="http://www.w3.org/2000/svg" xmlns:xlink="http://www.w3.org/1999/xlink" viewBox="0 0 226.72 233.53"><defs><style>.e{fill:#ffdc1d;}.f{fill:#ffbe02;}.g{fill:#fff;}.h{filter:url(#b);}.i{fill:#fda005;}.j{fill:#fff4a5;}</style><filter id="b" x="54.53" y="70.94" width="126.83" height="88.83" filterUnits="userSpaceOnUse"><feOffset dx="1" dy="4"/><feGaussianBlur result="c" stdDeviation="0"/><feFlood flood-color="#ffce00" flood-opacity=".5"/><feComposite in2="c" operator="in"/><feComposite in="SourceGraphic"/></filter></defs><path class="i" d="M0,120.17C0,57.56,50.75,6.81,113.36,6.81s113.36,50.75,113.36,113.36-50.75,113.36-113.36,113.36c-42.62,0-79.75-23.52-99.11-58.3C5.17,158.93,0,140.15,0,120.17Z"/><path class="e" d="M0,113.36C0,50.75,50.75,0,113.36,0s113.36,50.75,113.36,113.36-50.75,113.36-113.36,113.36c-42.62,0-79.75-23.52-99.11-58.3C5.17,152.12,0,133.35,0,113.36Z"/><path class="j" d="M42.89,198.3s-6.45-4.69-14.76-14.39c-5.52-6.43-10.58-15.09-10.58-15.09C66.75,117.55,115.14,67.09,164.35,15.83c0,0,9.15,5.07,15.65,10.38,7.97,6.27,15.06,13.73,15.06,13.73-50.72,52.78-101.44,105.57-152.17,158.35Z"/><path class="j" d="M196.7,41.6s2.3,2.19,3.93,4.08c1.93,2.23,3.88,5.83,3.88,5.83-48.59,51.31-99.17,104.58-147.76,155.89,0,0-3.23-1.88-5.02-3.06-2.72-1.69-5.41-3.98-5.41-3.98,50.07-52.86,100.32-105.91,150.39-158.76Z"/><path class="i" d="M20.79,113.36c0-51.12,41.44-92.57,92.57-92.57s92.57,41.44,92.57,92.57-41.44,92.57-92.57,92.57c-34.81,0-65.13-19.21-80.93-47.61-7.41-13.31-11.63-28.65-11.63-44.96Z"/><path class="f" d="M20.79,116.4c0-49.45,41.44-89.53,92.57-89.53s92.57,40.08,92.57,89.53-41.44,89.53-92.57,89.53c-34.81,0-65.13-18.58-80.93-46.04-7.41-12.88-11.63-27.7-11.63-43.49Z"/><g id="d" class="h"><path class="g" d="M92.93,70.97c-11.06,0-19.82,2.63-26.29,7.87-6.46,5.25-9.69,12.4-9.69,21.44,0,9.87,3.42,17.3,10.27,22.27,1.36.99,1.79,2.82,1,4.3l-13.45,25.15c-.16.32-.24.77-.24,1.33s.26,1.11.79,1.64,1.15.79,1.88.79h27.5c2.42,0,4.12-1.01,5.09-3.03l9.78-22c.54-1.21,1.74-1.99,3.06-1.99h4.3c1.85,0,3.35-1.5,3.35-3.35v-15.71c0-1.85-1.5-3.35-3.35-3.35h-11.45c-1.77,0-3.15-.58-4.12-1.76-.97-1.17-1.45-2.64-1.45-4.42s.47-3.33,1.39-4.66c.93-1.33,2.32-2,4.18-2h11.44c1.85,0,3.35-1.5,3.35-3.35l-.02-16.16c0-1.02.47-1.95,1.01-2.49.2-.2.03-.56-.26-.55h-2.11c-5.67.01-15.95.03-15.95.03Z"/><path class="g" d="M115.62,70.98l27.44.06c11.47,0,20.55,2.79,27.25,8.36,6.7,5.57,10.05,12.72,10.05,21.44s-2.83,15.65-8.48,20.77c-5.65,5.13-15.26,7.69-28.83,7.69l-11.45-.06v23.26c0,.89-.32,1.66-.97,2.3-.65.65-1.41.97-2.3.97h-12.72c-.89,0-1.66-.32-2.3-.97-.65-.65-.97-1.41-.97-2.3v-78.25c0-.89.32-1.65.97-2.3.65-.65,1.41-.97,2.3-.97ZM131.73,93.51v13.32l10.84.06c1.86,0,3.37-.56,4.54-1.7,1.17-1.13,1.76-2.7,1.76-4.72s-.57-3.67-1.7-4.97c-1.13-1.29-2.67-1.94-4.6-1.94l-10.84-.06Z"/></g></svg>